<?xml version="1.0" standalone="no"?>
<!DOCTYPE svg PUBLIC "-//W3C//DTD SVG 20010904//EN"
 "http://www.w3.org/TR/2001/REC-SVG-20010904/DTD/svg10.dtd">
<svg version="1.0" xmlns="http://www.w3.org/2000/svg"
 width="781.000000pt" height="313.000000pt" viewBox="0 0 781.000000 313.000000"
 preserveAspectRatio="xMidYMid meet">

<g transform="translate(0.000000,313.000000) scale(0.100000,-0.100000)"
fill="#000000" stroke="none">
<path d="M1022 2251 c-200 -49 -376 -191 -466 -375 -52 -107 -70 -184 -70
-311 0 -132 17 -205 76 -325 33 -67 58 -101 127 -170 147 -145 267 -199 463
-208 192 -8 341 41 484 157 264 214 332 614 156 906 -45 75 -140 176 -213 225
-157 108 -371 146 -557 101z m344 -92 c192 -58 342 -205 411 -401 34 -95 38
-268 9 -363 -65 -217 -234 -379 -452 -435 -141 -36 -288 -20 -424 46 -110 54
-223 170 -278 284 -48 102 -62 163 -62 278 0 171 58 311 180 433 166 166 396
225 616 158z"/>
<path d="M1149 2073 c-41 -66 -63 -144 -54 -200 3 -24 21 -73 40 -108 l33 -64
-36 -23 c-34 -21 -36 -21 -46 -3 -6 10 -31 40 -54 66 -54 59 -114 84 -197 83
-64 -1 -135 -19 -135 -35 0 -18 58 -95 92 -124 60 -51 113 -68 192 -62 39 2
78 8 87 11 12 5 21 -2 32 -26 22 -46 55 -172 63 -240 6 -57 6 -58 -19 -58 -21
0 -30 8 -45 44 -38 84 -119 155 -222 191 -38 14 -179 45 -202 45 -12 0 22 -80
54 -127 66 -97 209 -171 336 -173 27 0 32 -4 32 -25 0 -31 17 -33 22 -2 2 16
10 22 28 22 18 0 26 -6 28 -22 4 -30 20 -30 24 0 2 16 10 22 28 22 20 0 24 -4
22 -22 -2 -16 2 -23 12 -23 10 0 16 9 16 25 0 21 5 25 33 25 47 1 140 25 192
50 64 31 141 109 170 172 34 73 33 80 -12 73 -204 -35 -332 -110 -385 -226
-18 -42 -26 -49 -50 -49 -24 0 -28 3 -23 23 2 12 9 50 15 85 12 67 53 199 67
213 5 5 24 4 43 -1 64 -18 142 -12 198 16 51 25 114 87 142 138 18 34 10 40
-77 56 -118 23 -229 -27 -289 -129 -22 -37 -27 -37 -65 -10 l-29 20 32 55 c35
63 48 161 29 229 -12 46 -66 135 -81 135 -6 0 -24 -21 -41 -47z m81 -49 c36
-69 35 -169 -1 -239 -14 -27 -32 -50 -40 -50 -43 0 -85 171 -60 246 17 51 50
101 64 96 6 -2 23 -26 37 -53z m-262 -257 c38 -24 102 -99 102 -117 0 -10 -72
-30 -107 -30 -75 0 -176 60 -216 129 -18 31 -18 31 5 41 13 5 57 9 99 7 63 -2
82 -6 117 -30z m657 23 l27 -10 -29 -39 c-74 -101 -171 -140 -275 -110 -43 11
-43 11 -24 47 20 38 75 88 116 106 40 17 146 21 185 6z m-391 -135 l30 -24
-27 -78 c-14 -43 -29 -95 -33 -116 -3 -20 -9 -39 -13 -42 -4 -2 -15 30 -25 71
-9 41 -26 96 -37 122 -13 29 -16 48 -10 50 6 2 21 12 33 22 30 25 47 24 82 -5z
m-368 -151 c109 -39 194 -114 218 -192 7 -22 6 -22 -36 -16 -120 17 -192 50
-261 120 -34 34 -77 101 -77 119 0 11 91 -7 156 -31z m804 28 c0 -16 -59 -98
-96 -134 -22 -20 -64 -48 -94 -62 -52 -24 -178 -51 -188 -41 -12 12 36 90 76
125 53 47 113 77 201 101 74 20 101 23 101 11z"/>
<path d="M935 1128 c17 -6 69 -36 117 -65 47 -30 102 -56 120 -60 37 -6 96 19
181 77 25 17 63 37 84 45 l38 15 -55 -4 c-30 -3 -84 -17 -119 -32 -55 -22 -75
-26 -130 -21 -37 3 -93 16 -128 31 -35 14 -80 26 -100 25 l-38 -1 30 -10z"/>
<path d="M3970 2182 c-41 -20 -58 -59 -44 -99 8 -26 39 -47 115 -78 31 -13 36
-41 10 -55 -17 -8 -24 -7 -41 10 -21 21 -90 29 -90 9 0 -61 109 -101 179 -64
51 26 60 99 18 134 -9 7 -37 21 -64 31 -39 14 -48 23 -48 41 0 29 41 40 51 15
7 -18 84 -23 84 -5 0 24 -24 52 -55 65 -45 18 -73 18 -115 -4z"/>
<path d="M6515 2193 c-38 -10 -65 -44 -65 -83 0 -43 26 -72 83 -90 45 -14 68
-35 61 -55 -8 -20 -60 -19 -68 0 -3 9 -19 15 -41 15 -44 0 -47 -25 -9 -61 21
-20 36 -24 86 -24 53 0 62 3 84 28 48 56 20 120 -64 145 -45 14 -67 35 -58 57
7 19 40 19 56 0 7 -8 29 -15 50 -15 33 0 37 3 33 19 -12 47 -89 80 -148 64z"/>
<path d="M7080 2182 c-41 -20 -58 -59 -44 -99 8 -26 39 -47 115 -78 31 -13 36
-41 10 -55 -17 -8 -24 -7 -41 10 -21 21 -90 29 -90 9 0 -61 109 -101 179 -64
51 26 60 99 18 134 -9 7 -37 21 -64 31 -39 14 -48 23 -48 41 0 29 41 40 51 15
7 -18 84 -23 84 -5 0 24 -24 52 -55 65 -45 18 -73 18 -115 -4z"/>
<path d="M2270 2040 l0 -150 79 0 c123 0 161 21 161 89 0 20 -8 36 -26 50 -21
17 -23 22 -11 27 25 9 37 56 22 91 -17 39 -29 43 -136 43 l-89 0 0 -150z m148
91 c8 -4 12 -19 10 -32 -2 -20 -9 -24 -45 -27 -41 -3 -43 -2 -43 26 0 16 3 32
7 35 9 10 55 8 71 -2z m15 -132 c19 -31 1 -49 -48 -49 -43 0 -45 1 -45 28 0
16 3 32 7 36 13 12 76 2 86 -15z"/>
<path d="M2647 2183 c-6 -9 -107 -285 -107 -290 0 -2 16 -3 34 -3 28 0 37 5
48 28 12 24 20 27 66 30 51 3 54 2 65 -27 10 -27 16 -31 49 -31 21 0 38 1 38
3 0 1 -24 67 -53 147 l-52 145 -42 3 c-23 2 -44 -1 -46 -5z m65 -133 l16 -50
-40 0 c-28 0 -39 4 -35 13 2 6 10 29 18 50 7 20 16 37 19 37 3 0 13 -22 22
-50z"/>
<path d="M2880 2039 l0 -152 85 5 c91 5 118 17 158 70 26 35 26 116 0 160 -28
49 -74 68 -165 68 l-78 0 0 -151z m164 70 c20 -16 26 -29 26 -59 0 -21 -3 -46
-6 -55 -8 -20 -56 -45 -89 -45 -25 0 -25 0 -25 90 l0 90 34 0 c19 0 45 -9 60
-21z"/>
<path d="M3275 2178 c-3 -7 -11 -31 -19 -53 -8 -22 -30 -84 -50 -137 l-35 -98
37 0 c33 0 39 4 49 30 11 28 14 30 66 30 52 0 56 -2 66 -30 9 -26 15 -30 47
-30 24 0 35 4 32 13 -3 6 -27 74 -54 149 l-49 138 -43 0 c-25 0 -44 -5 -47
-12z m79 -155 c7 -21 4 -23 -33 -23 l-40 0 15 43 c26 75 25 74 39 37 7 -19 15
-45 19 -57z"/>
<path d="M3510 2040 l0 -150 35 0 34 0 3 93 3 92 63 -92 c59 -87 65 -93 97
-93 l35 0 0 150 0 150 -35 0 -34 0 -3 -92 -3 -92 -60 92 c-58 89 -61 92 -97
92 l-38 0 0 -150z"/>
<path d="M4180 2166 c0 -21 5 -25 38 -28 l37 -3 3 -122 3 -123 34 0 35 0 0
125 0 125 40 0 c36 0 40 3 40 25 l0 25 -115 0 -115 0 0 -24z"/>
<path d="M4535 2178 c-3 -7 -11 -31 -19 -53 -8 -22 -30 -84 -50 -137 l-35 -98
37 0 c33 0 39 4 49 30 11 28 14 30 66 30 52 0 56 -2 66 -30 9 -26 15 -30 47
-30 24 0 35 4 32 13 -3 6 -27 74 -54 149 l-49 138 -43 0 c-25 0 -44 -5 -47
-12z m79 -155 c7 -21 4 -23 -33 -23 l-40 0 15 43 c26 75 25 74 39 37 7 -19 15
-45 19 -57z"/>
<path d="M4770 2040 l0 -150 35 0 34 0 3 92 3 92 60 -92 c58 -89 61 -92 98
-92 l37 0 0 150 0 150 -35 0 -34 0 -3 -92 -3 -93 -60 92 c-58 89 -61 92 -97
93 l-38 0 0 -150z"/>
<path d="M5100 2039 l0 -152 85 5 c91 5 118 17 158 70 26 35 26 116 0 160 -28
49 -74 68 -165 68 l-78 0 0 -151z m164 70 c20 -16 26 -29 26 -59 0 -21 -3 -46
-6 -55 -8 -20 -56 -45 -89 -45 -25 0 -25 0 -25 90 l0 90 34 0 c19 0 45 -9 60
-21z"/>
<path d="M5497 2183 c-6 -9 -107 -285 -107 -290 0 -2 16 -3 34 -3 28 0 37 5
48 28 12 24 20 27 66 30 51 3 54 2 65 -27 10 -27 16 -31 49 -31 21 0 38 1 38
3 0 1 -24 67 -53 147 l-52 145 -42 3 c-23 2 -44 -1 -46 -5z m65 -133 l16 -50
-40 0 c-28 0 -39 4 -35 13 2 6 10 29 18 50 7 20 16 37 19 37 3 0 13 -22 22
-50z"/>
<path d="M5730 2040 l0 -150 35 0 35 0 0 60 c0 33 4 60 9 60 6 0 24 -27 42
-60 31 -58 33 -60 71 -60 l40 0 -31 55 c-36 64 -37 72 -13 80 22 6 42 45 42
81 0 15 -12 38 -29 55 -28 28 -34 29 -115 29 l-86 0 0 -150z m155 71 c11 -34
-4 -51 -46 -51 -38 0 -39 1 -39 35 0 34 1 35 39 35 30 0 41 -5 46 -19z"/>
<path d="M6010 2040 l0 -150 73 0 c56 0 83 5 117 23 103 51 107 196 8 257 -26
16 -51 20 -115 20 l-83 0 0 -150z m170 72 c13 -10 23 -33 27 -58 7 -55 -24
-93 -85 -101 l-42 -6 0 92 0 91 39 0 c22 0 48 -8 61 -18z"/>
<path d="M6330 2040 l0 -150 35 0 35 0 0 150 0 150 -35 0 -35 0 0 -150z"/>
<path d="M6805 2178 c-3 -7 -11 -31 -19 -53 -8 -22 -30 -84 -50 -137 l-35 -98
37 0 c33 0 39 4 49 30 11 28 14 30 66 30 52 0 56 -2 66 -30 9 -26 15 -30 47
-30 24 0 35 4 32 13 -3 6 -27 74 -54 149 l-49 138 -43 0 c-25 0 -44 -5 -47
-12z m79 -155 c7 -21 4 -23 -33 -23 l-40 0 15 43 c26 75 25 74 39 37 7 -19 15
-45 19 -57z"/>
<path d="M7310 2040 l0 -150 35 0 35 0 0 150 0 150 -35 0 -35 0 0 -150z"/>
<path d="M2773 1746 c-37 -17 -53 -43 -53 -85 0 -35 33 -65 91 -83 45 -13 64
-31 55 -53 -7 -19 -50 -19 -66 0 -16 20 -80 20 -80 1 0 -8 10 -27 23 -42 19
-22 34 -28 78 -32 49 -4 59 -1 87 23 26 21 32 34 32 64 0 44 -16 62 -80 87
-62 23 -77 38 -60 58 16 20 49 21 56 1 4 -10 20 -15 45 -15 43 0 43 0 28 33
-21 47 -99 68 -156 43z"/>
<path d="M2270 1600 l0 -150 35 0 35 0 0 150 0 150 -35 0 -35 0 0 -150z"/>
<path d="M2400 1600 l0 -150 35 0 34 0 3 93 3 92 63 -92 c59 -87 65 -93 97
-93 l35 0 0 150 0 150 -35 0 -34 0 -3 -92 -3 -92 -60 92 c-58 89 -61 92 -97
92 l-38 0 0 -150z"/>
<path d="M2970 1726 c0 -22 5 -25 43 -28 l42 -3 3 -122 3 -123 34 0 35 0 0
125 0 125 40 0 c36 0 40 3 40 25 l0 25 -120 0 -120 0 0 -24z"/>
<path d="M3250 1600 l0 -150 35 0 35 0 0 60 c0 33 4 60 9 60 6 0 24 -27 42
-60 31 -58 33 -60 71 -60 l40 0 -31 55 c-36 64 -37 72 -13 80 22 6 42 45 42
81 0 15 -12 38 -29 55 -28 28 -34 29 -115 29 l-86 0 0 -150z m155 71 c11 -34
-4 -51 -46 -51 -38 0 -39 1 -39 35 0 34 1 35 39 35 30 0 41 -5 46 -19z"/>
<path d="M3530 1645 c0 -119 12 -155 60 -180 62 -32 146 -11 175 45 11 20 15
60 15 135 l0 105 -35 0 -35 0 0 -104 c0 -97 -2 -106 -22 -120 -30 -21 -44 -20
-68 4 -17 17 -20 33 -20 120 l0 100 -35 0 -35 0 0 -105z"/>
<path d="M3840 1601 l0 -151 35 0 35 0 1 88 0 87 33 -85 c30 -78 36 -85 62
-88 28 -3 31 0 59 78 16 45 33 84 37 86 5 3 8 -33 8 -80 l0 -86 35 0 35 0 0
150 0 150 -44 0 -44 0 -37 -92 c-20 -51 -40 -97 -44 -101 -5 -5 -26 36 -48 90
l-39 98 -42 3 -42 3 0 -150z"/>
<path d="M4230 1600 l0 -150 95 0 95 0 0 30 0 30 -61 0 -60 0 3 33 c3 31 5 32
51 35 42 3 47 6 47 27 0 21 -5 24 -47 27 -46 3 -48 4 -48 33 0 30 1 30 58 33
53 3 57 5 57 27 0 25 -1 25 -95 25 l-95 0 0 -150z"/>
<path d="M4470 1600 l0 -150 35 0 34 0 3 91 3 91 58 -91 c55 -85 61 -91 93
-91 l34 0 0 150 0 150 -35 0 -35 0 0 -92 0 -92 -60 92 c-56 87 -61 92 -95 92
l-35 0 0 -150z"/>
<path d="M4880 1600 l0 -150 35 0 35 0 0 55 0 55 40 0 c107 0 159 93 91 161
-28 28 -34 29 -115 29 l-86 0 0 -150z m145 87 c13 -10 16 -21 11 -40 -6 -24
-11 -27 -46 -27 -39 0 -40 1 -40 33 0 19 3 37 7 40 11 12 48 8 68 -6z"/>
<path d="M5150 1600 l0 -150 95 0 95 0 0 30 0 30 -61 0 -60 0 3 33 c3 31 5 32
51 35 42 3 47 6 47 27 0 21 -5 24 -47 27 -46 3 -48 4 -48 33 0 30 1 30 58 33
53 3 57 5 57 27 0 25 -1 25 -95 25 l-95 0 0 -150z"/>
<path d="M5390 1600 l0 -150 35 0 35 0 0 60 c0 33 4 60 9 60 6 0 24 -27 42
-60 31 -58 33 -60 71 -60 l40 0 -31 55 c-36 64 -37 72 -13 80 22 6 42 45 42
81 0 15 -12 38 -29 55 -28 28 -34 29 -115 29 l-86 0 0 -150z m155 71 c11 -34
-4 -51 -46 -51 -38 0 -39 1 -39 35 0 34 1 35 39 35 30 0 41 -5 46 -19z"/>
<path d="M5650 1726 c0 -22 5 -25 43 -28 l42 -3 3 -122 3 -123 34 0 35 0 0
125 0 125 40 0 c36 0 40 3 40 25 l0 25 -120 0 -120 0 0 -24z"/>
<path d="M5965 1613 c-27 -76 -50 -144 -53 -150 -3 -9 8 -13 32 -13 32 0 38 4
47 30 10 28 14 30 66 30 52 0 55 -2 66 -30 10 -26 16 -30 48 -30 l37 0 -35 98
c-19 53 -43 120 -53 147 -16 49 -18 50 -61 53 l-45 3 -49 -138z m121 -27 c6
-25 4 -26 -31 -26 -28 0 -36 4 -32 14 3 8 11 33 18 57 l13 42 13 -30 c6 -17
15 -42 19 -57z"/>
<path d="M6250 1600 l0 -150 35 0 34 0 3 91 3 91 58 -91 c55 -85 61 -91 93
-91 l34 0 0 150 0 150 -35 0 -35 0 0 -92 0 -92 -60 92 c-56 87 -61 92 -95 92
l-35 0 0 -150z"/>
<path d="M6570 1600 l0 -150 35 0 35 0 0 150 0 150 -35 0 -35 0 0 -150z"/>
<path d="M6787 1743 c-6 -9 -107 -285 -107 -290 0 -2 16 -3 34 -3 28 0 37 5
48 28 12 24 20 27 66 30 51 3 54 2 65 -27 10 -27 16 -31 49 -31 21 0 38 1 38
3 0 1 -24 67 -53 147 l-52 145 -42 3 c-23 2 -44 -1 -46 -5z m65 -133 l16 -50
-40 0 c-28 0 -39 4 -35 13 2 6 10 29 18 50 7 20 16 37 19 37 3 0 13 -22 22
-50z"/>
<path d="M7020 1600 l0 -150 35 0 34 0 3 92 3 92 60 -92 c58 -89 61 -92 98
-92 l37 0 0 150 0 150 -35 0 -34 0 -3 -92 -3 -93 -60 92 c-58 89 -61 92 -97
93 l-38 0 0 -150z"/>
<path d="M2280 1150 c0 -143 1 -150 20 -150 18 0 20 7 20 68 l1 67 63 -67 c42
-46 70 -68 85 -68 21 0 15 9 -44 75 -76 85 -77 71 10 165 44 48 47 55 30 58
-15 3 -37 -14 -82 -64 l-63 -69 0 68 c0 60 -2 67 -20 67 -19 0 -20 -7 -20
-150z"/>
<path d="M2540 1150 l0 -150 80 0 c64 0 80 3 80 15 0 12 -13 15 -60 15 l-60 0
0 55 0 55 55 0 c42 0 55 3 55 15 0 12 -13 15 -55 15 l-55 0 0 55 0 55 60 0
c33 0 60 4 60 10 0 6 -33 10 -80 10 l-80 0 0 -150z"/>
<path d="M2770 1150 c0 -125 2 -150 15 -150 12 0 15 22 17 113 l3 112 50 -112
c33 -75 55 -112 64 -110 8 1 34 47 59 102 24 55 48 104 53 110 5 5 9 -35 9
-103 0 -93 3 -112 15 -112 13 0 15 23 15 151 0 146 -1 150 -21 147 -15 -2 -33
-31 -72 -120 -29 -65 -55 -118 -58 -118 -3 0 -30 54 -59 120 -40 91 -57 120
-71 120 -18 0 -19 -11 -19 -150z"/>
<path d="M3140 1150 l0 -150 80 0 c64 0 80 3 80 15 0 12 -13 15 -60 15 l-60 0
0 55 0 55 55 0 c42 0 55 3 55 15 0 12 -13 15 -56 15 l-55 0 3 53 3 52 58 3
c86 5 68 22 -23 22 l-80 0 0 -150z"/>
<path d="M3370 1150 c0 -125 2 -150 15 -150 12 0 15 23 17 123 l3 122 80 -122
c110 -167 115 -166 115 27 0 125 -2 150 -15 150 -12 0 -15 -22 -17 -117 l-3
-118 -79 118 c-110 163 -116 161 -116 -33z"/>
<path d="M3660 1291 c0 -6 17 -11 38 -13 l37 -3 3 -137 c2 -130 4 -138 22
-138 19 0 20 7 20 140 l0 140 40 0 c22 0 40 5 40 10 0 6 -40 10 -100 10 -56 0
-100 -4 -100 -9z"/>
<path d="M3910 1150 l0 -150 80 0 c64 0 80 3 80 15 0 12 -13 15 -60 15 l-60 0
0 55 0 55 55 0 c42 0 55 3 55 15 0 12 -13 15 -56 15 l-55 0 3 53 3 52 58 3
c86 5 68 22 -23 22 l-80 0 0 -150z"/>
<path d="M4140 1150 c0 -124 2 -150 15 -150 10 0 15 16 17 63 3 58 4 62 28 62
19 0 31 -12 60 -62 27 -49 40 -63 58 -63 l24 0 -23 38 c-13 20 -29 47 -37 60
-14 22 -13 25 19 51 44 37 47 92 5 127 -23 20 -38 24 -97 24 l-69 0 0 -150z
m144 104 c21 -20 20 -53 -1 -76 -11 -13 -30 -18 -65 -18 l-48 0 0 55 0 55 49
0 c32 0 55 -6 65 -16z"/>
<path d="M4400 1150 c0 -143 1 -150 20 -150 19 0 20 7 20 150 0 143 -1 150
-20 150 -19 0 -20 -7 -20 -150z"/>
<path d="M4595 1288 c-3 -7 -27 -74 -54 -148 -27 -74 -45 -137 -40 -138 20 -8
37 8 44 38 l7 31 71 -3 c71 -3 71 -3 81 -35 6 -23 15 -33 29 -33 11 0 17 5 15
13 -86 251 -102 287 -125 287 -13 0 -26 -6 -28 -12z m59 -115 l26 -73 -55 0
c-30 0 -55 3 -55 8 0 4 9 32 20 62 12 30 23 61 26 69 6 19 8 16 38 -66z"/>
<path d="M4810 1150 c0 -125 2 -150 15 -150 12 0 15 23 17 122 l3 121 80 -121
c110 -167 115 -165 115 28 0 127 -2 150 -15 150 -12 0 -15 -19 -15 -115 0 -63
-3 -115 -7 -115 -5 0 -41 52 -81 115 -52 81 -80 115 -93 115 -18 0 -19 -9 -19
-150z"/>
<path d="M5230 1150 c0 -143 1 -150 20 -150 18 0 20 7 20 65 l0 65 46 0 c74 0
113 30 114 88 0 22 -8 41 -25 57 -21 22 -33 25 -100 25 l-75 0 0 -150z m148
108 c7 -7 12 -27 12 -45 0 -39 -21 -53 -79 -53 l-41 0 0 55 0 55 48 0 c26 0
53 -5 60 -12z"/>
<path d="M5480 1150 l0 -150 80 0 c64 0 80 3 80 15 0 12 -13 15 -60 15 l-60 0
0 55 0 55 55 0 c42 0 55 3 55 15 0 12 -13 15 -56 15 l-55 0 3 53 3 52 58 3
c86 5 68 22 -23 22 l-80 0 0 -150z"/>
<path d="M5710 1150 c0 -124 2 -150 15 -150 10 0 15 16 17 63 3 55 5 62 25 65
18 3 29 -7 52 -45 47 -76 56 -86 74 -82 15 3 12 12 -19 63 -34 56 -35 61 -18
73 10 7 21 13 25 13 13 0 31 60 25 85 -12 49 -43 65 -123 65 l-73 0 0 -150z
m150 101 c29 -54 0 -91 -71 -91 l-49 0 0 55 0 55 55 0 c43 0 56 -4 65 -19z"/>
<path d="M5950 1291 c0 -6 19 -11 43 -13 l42 -3 3 -137 c2 -112 5 -138 17
-138 12 0 15 26 17 138 l3 137 43 3 c23 2 42 7 42 13 0 5 -46 9 -105 9 -59 0
-105 -4 -105 -9z"/>
<path d="M6295 1288 c-3 -7 -27 -74 -54 -148 -27 -74 -45 -137 -40 -138 20 -8
37 8 44 38 l7 31 71 -3 c71 -3 71 -3 81 -35 6 -23 15 -33 29 -33 11 0 17 5 15
13 -86 251 -102 287 -125 287 -13 0 -26 -6 -28 -12z m59 -115 l26 -73 -55 0
c-30 0 -55 3 -55 8 0 4 9 32 20 62 12 30 23 61 26 69 6 19 8 16 38 -66z"/>
<path d="M6510 1150 c0 -125 2 -150 15 -150 12 0 15 23 17 122 l3 121 80 -121
c110 -167 115 -165 115 28 0 127 -2 150 -15 150 -12 0 -15 -19 -15 -115 0 -63
-3 -115 -7 -115 -5 0 -41 52 -81 115 -52 81 -80 115 -93 115 -18 0 -19 -9 -19
-150z"/>
<path d="M6810 1150 c0 -143 1 -150 20 -150 19 0 20 7 20 150 0 143 -1 150
-20 150 -19 0 -20 -7 -20 -150z"/>
<path d="M7005 1288 c-3 -7 -27 -74 -54 -148 -27 -74 -45 -137 -40 -138 20 -8
37 8 44 38 l7 31 71 -3 c71 -3 71 -3 81 -35 6 -23 15 -33 29 -33 11 0 17 5 15
13 -86 251 -102 287 -125 287 -13 0 -26 -6 -28 -12z m59 -115 l26 -73 -55 0
c-30 0 -55 3 -55 8 0 4 9 32 20 62 12 30 23 61 26 69 6 19 8 16 38 -66z"/>
<path d="M7220 1150 c0 -125 2 -150 15 -150 12 0 15 23 17 122 l3 121 80 -121
c110 -167 115 -165 115 28 0 127 -2 150 -15 150 -12 0 -15 -19 -15 -115 0 -63
-3 -115 -7 -115 -5 0 -41 52 -81 115 -52 81 -80 115 -93 115 -18 0 -19 -9 -19
-150z"/>
</g>
</svg>
