<?xml version="1.0" standalone="no"?>
<!DOCTYPE svg PUBLIC "-//W3C//DTD SVG 20010904//EN"
 "http://www.w3.org/TR/2001/REC-SVG-20010904/DTD/svg10.dtd">
<svg version="1.0" xmlns="http://www.w3.org/2000/svg"
 width="120.000000pt" height="80.000000pt" viewBox="0 0 1200.000000 800.000000"
 preserveAspectRatio="xMidYMid meet">

<g transform="translate(0.000000,800.000000) scale(0.100000,-0.100000)"
fill="#000000" stroke="none">
<path d="M2365 7615 c-127 -17 -234 -35 -260 -46 -11 -4 -40 -12 -65 -18 -76
-17 -134 -33 -167 -47 -17 -8 -38 -14 -46 -14 -9 0 -18 -4 -22 -9 -3 -5 -19
-12 -36 -16 -17 -4 -42 -13 -57 -21 -15 -8 -35 -14 -44 -14 -10 0 -18 -4 -18
-10 0 -5 -5 -10 -12 -10 -15 0 -219 -101 -236 -117 -7 -7 -18 -13 -23 -13 -5
0 -28 -13 -51 -30 -22 -16 -47 -30 -55 -30 -7 0 -13 -5 -13 -10 0 -6 -8 -14
-17 -17 -10 -4 -22 -11 -28 -15 -5 -4 -48 -37 -95 -71 -47 -35 -105 -81 -130
-103 -88 -76 -330 -326 -330 -340 0 -2 -8 -12 -17 -22 -10 -10 -25 -29 -33
-42 -8 -12 -20 -28 -26 -34 -23 -24 -105 -149 -100 -153 2 -2 279 -7 615 -10
l612 -6 6 21 c3 12 9 22 13 22 5 0 11 14 15 30 4 17 10 30 15 30 5 0 11 14 15
30 4 17 10 30 15 30 4 0 11 12 15 27 3 15 10 30 13 33 4 3 17 25 30 50 13 25
32 59 43 75 10 17 24 42 30 58 6 15 15 27 19 27 4 0 11 11 14 25 4 14 11 25
16 25 6 0 10 4 10 10 0 8 150 238 175 267 31 37 35 43 35 47 0 9 72 101 81
104 5 2 9 10 9 18 0 8 4 14 8 14 5 0 24 21 43 47 18 26 40 54 49 63 8 9 33 38
55 65 22 28 50 61 62 75 42 45 37 46 -132 25z"/>
<path d="M2870 7624 c0 -6 64 -87 90 -114 9 -9 31 -37 49 -63 19 -26 38 -47
43 -47 4 0 8 -6 8 -14 0 -8 4 -16 9 -18 12 -4 81 -96 81 -108 0 -6 4 -10 9
-10 5 0 23 -22 39 -48 16 -26 35 -54 43 -63 24 -25 59 -78 59 -88 0 -5 4 -11
8 -13 5 -1 28 -36 53 -76 24 -40 52 -85 62 -100 9 -15 20 -35 23 -44 4 -10 10
-18 15 -18 5 0 9 -5 9 -11 0 -6 16 -38 36 -71 20 -33 67 -119 103 -191 l68
-132 621 -3 c525 -2 622 0 622 12 0 7 -7 19 -15 26 -8 7 -15 18 -15 25 0 8 -3
15 -7 17 -11 5 -53 66 -53 77 0 5 -4 11 -9 13 -5 2 -31 32 -58 68 -62 81 -117
143 -209 234 -84 85 -184 176 -193 176 -3 0 -24 16 -46 35 -57 50 -56 49 -126
97 -91 62 -235 148 -248 148 -6 0 -11 4 -11 9 0 5 -13 12 -30 16 -16 4 -30 10
-30 15 0 5 -13 11 -30 15 -16 4 -30 11 -30 16 0 5 -5 9 -11 9 -12 0 -66 22
-112 46 -16 8 -34 14 -40 14 -7 0 -24 6 -39 14 -15 8 -42 17 -60 21 -18 4 -37
10 -43 14 -42 26 -312 85 -485 106 -133 16 -150 17 -150 9z"/>
<path d="M6315 7618 c-60 -5 -117 -12 -126 -17 -9 -5 -48 -13 -88 -17 -39 -3
-71 -10 -71 -14 0 -4 -25 -11 -55 -15 -30 -3 -57 -10 -60 -15 -3 -5 -26 -12
-50 -16 -25 -3 -47 -10 -50 -14 -3 -5 -23 -11 -45 -15 -22 -4 -40 -10 -40 -15
0 -4 -16 -11 -35 -14 -19 -4 -47 -13 -62 -21 -15 -8 -34 -15 -40 -15 -7 0 -13
-4 -13 -10 0 -5 -6 -10 -12 -10 -7 -1 -31 -9 -53 -20 -22 -11 -45 -19 -52 -20
-6 0 -13 -3 -15 -7 -1 -5 -39 -26 -83 -48 -44 -22 -85 -44 -91 -50 -6 -5 -27
-19 -47 -30 -20 -11 -37 -23 -37 -27 0 -5 -5 -8 -11 -8 -6 0 -21 -8 -34 -17
-12 -10 -33 -25 -45 -33 -12 -8 -28 -20 -34 -26 -6 -6 -18 -15 -27 -20 -26
-14 -94 -72 -171 -144 -39 -36 -76 -69 -84 -73 -23 -13 -16 -46 14 -75 16 -15
51 -56 77 -92 27 -36 52 -67 55 -70 13 -12 50 -70 50 -79 0 -5 7 -11 15 -15 8
-3 15 -12 15 -21 0 -8 4 -15 10 -15 5 0 12 -11 16 -25 3 -14 9 -25 13 -25 3 0
15 -16 25 -35 l19 -35 267 0 268 0 57 118 c32 64 61 119 64 122 3 3 13 19 22
35 39 74 64 120 70 125 4 3 9 15 13 28 4 12 12 22 17 22 5 0 9 4 9 9 0 9 56
99 85 136 8 10 15 25 15 32 0 7 4 13 8 13 4 0 25 27 46 60 21 33 42 60 47 60
5 0 9 5 9 10 0 10 37 68 51 80 3 3 29 37 58 75 30 39 57 72 60 75 4 3 31 37
61 75 30 39 63 79 75 90 34 34 46 53 38 57 -4 2 -57 0 -118 -4z"/>
<path d="M6795 7620 c-3 -5 -1 -10 4 -10 6 0 11 -5 11 -10 0 -6 10 -21 23 -33
18 -17 85 -100 139 -172 5 -5 24 -28 43 -50 19 -22 35 -45 35 -51 0 -7 7 -14
15 -18 8 -3 15 -12 15 -21 0 -8 3 -15 8 -15 4 0 18 -18 32 -40 13 -22 28 -40
32 -40 4 0 8 -6 8 -13 0 -8 9 -22 20 -32 11 -10 20 -24 20 -31 0 -7 3 -14 8
-16 10 -5 52 -66 52 -77 0 -5 4 -11 8 -13 11 -4 82 -123 82 -136 0 -6 4 -12 8
-14 11 -4 82 -123 82 -137 0 -6 4 -11 9 -11 5 0 12 -12 16 -27 3 -15 10 -30
14 -33 12 -8 81 -150 81 -166 0 -8 4 -14 9 -14 5 0 11 -9 14 -20 5 -19 14 -20
150 -20 91 0 148 -4 152 -10 7 -11 953 -3 965 7 2 2 0 7 -5 11 -12 8 -55 69
-55 77 0 3 -5 11 -10 18 -37 44 -50 61 -50 66 0 3 -14 22 -30 41 -16 19 -33
40 -38 45 -77 100 -228 257 -314 327 -53 43 -90 74 -125 105 -14 12 -47 36
-74 54 -27 17 -49 35 -49 39 0 4 -11 11 -25 14 -14 4 -25 11 -25 16 0 6 -4 10
-9 10 -5 0 -33 16 -62 35 -30 19 -59 35 -65 35 -7 0 -14 3 -16 8 -4 10 -209
112 -225 112 -7 0 -13 4 -13 9 0 5 -16 12 -35 15 -19 4 -35 11 -35 15 0 5 -16
12 -35 15 -19 4 -47 13 -62 21 -15 8 -36 15 -45 15 -9 0 -19 4 -22 9 -4 5 -25
12 -49 16 -23 4 -46 11 -52 15 -5 4 -34 11 -62 15 -29 4 -55 10 -58 15 -3 4
-36 11 -75 15 -39 4 -72 11 -75 15 -3 4 -53 11 -112 15 -60 4 -115 9 -125 11
-9 3 -19 0 -23 -6z"/>
<path d="M2610 7510 c0 -5 -8 -18 -17 -28 -10 -10 -36 -40 -58 -67 -22 -27
-48 -57 -57 -67 -10 -10 -18 -20 -18 -23 0 -3 -8 -13 -17 -23 -10 -10 -25 -29
-33 -41 -8 -13 -25 -35 -38 -49 -12 -15 -35 -45 -50 -67 -15 -22 -32 -46 -39
-52 -15 -16 -196 -290 -213 -323 -7 -14 -16 -27 -19 -30 -4 -3 -12 -16 -18
-30 -7 -14 -26 -47 -42 -75 -16 -27 -42 -75 -57 -105 -15 -30 -30 -57 -34 -60
-4 -3 -11 -20 -15 -37 l-7 -33 371 0 371 0 0 560 c0 308 -2 560 -5 560 -3 0
-5 -4 -5 -10z"/>
<path d="M6503 7472 c-36 -41 -75 -87 -108 -130 -5 -7 -15 -18 -20 -25 -6 -7
-35 -43 -64 -82 -30 -38 -57 -71 -62 -73 -5 -2 -9 -8 -9 -14 0 -5 -19 -35 -43
-66 -75 -101 -223 -329 -259 -402 -7 -14 -15 -27 -18 -30 -3 -3 -16 -27 -30
-55 -14 -27 -27 -52 -30 -55 -4 -4 -55 -102 -68 -132 -2 -5 168 -8 377 -8
l381 0 0 560 c0 308 -1 560 -2 559 -2 0 -22 -21 -45 -47z"/>
<path d="M2770 6950 l0 -550 371 0 c204 0 369 3 367 8 -23 51 -96 190 -105
200 -7 7 -13 17 -13 22 0 7 -102 180 -152 258 -10 15 -21 34 -25 42 -3 8 -9
17 -12 20 -13 11 -51 70 -51 79 0 5 -7 11 -15 15 -8 3 -15 12 -15 21 0 8 -4
15 -9 15 -5 0 -12 8 -15 18 -3 9 -16 28 -28 42 -13 14 -35 43 -50 65 -15 22
-38 52 -50 67 -13 14 -32 39 -43 54 -11 15 -26 33 -32 40 -7 7 -13 15 -13 18
0 3 -12 18 -27 34 -16 16 -37 41 -47 56 -10 14 -23 26 -27 26 -5 0 -9 -247 -9
-550z"/>
<path d="M6690 6950 l0 -550 370 0 370 0 -13 28 c-6 15 -22 45 -34 67 -12 22
-32 60 -45 85 -13 25 -25 47 -28 50 -3 3 -16 28 -30 55 -14 28 -28 52 -31 55
-3 3 -25 37 -48 75 -64 106 -65 108 -78 123 -7 7 -13 19 -13 27 0 7 -7 15 -15
19 -8 3 -15 10 -15 16 0 6 -5 16 -10 23 -32 37 -110 149 -110 157 0 4 -4 10
-9 12 -9 3 -81 95 -81 103 0 3 -8 13 -17 23 -30 31 -98 114 -102 125 -4 11
-51 57 -57 57 -2 0 -4 -247 -4 -550z"/>
<path d="M345 6170 c-26 -52 -53 -111 -62 -130 -8 -19 -21 -48 -28 -65 -20
-44 -72 -204 -80 -245 -4 -19 -10 -39 -14 -45 -3 -5 -12 -37 -19 -70 -40 -184
-60 -337 -61 -457 l-1 -68 664 0 663 0 6 158 c3 86 10 177 16 202 5 25 15 74
20 110 14 95 29 170 41 215 30 108 42 149 76 255 21 63 41 119 46 124 4 6 8
17 8 25 0 9 7 29 15 45 9 16 14 30 12 32 -2 2 -285 5 -629 6 l-627 3 -46 -95z"/>
<path d="M1795 6230 c-4 -16 -11 -30 -16 -30 -5 0 -9 -7 -9 -16 0 -9 -6 -30
-14 -47 -17 -38 -67 -187 -91 -272 -9 -33 -23 -80 -30 -105 -7 -25 -16 -67
-20 -95 -4 -27 -10 -54 -13 -60 -16 -23 -50 -321 -51 -437 l-1 -78 535 0 535
0 0 585 0 585 -409 0 -409 0 -7 -30z"/>
<path d="M2777 6253 c-4 -3 -7 -267 -7 -585 l0 -578 540 0 539 0 -5 98 c-2 53
-7 113 -10 132 -3 19 -12 76 -19 125 -23 153 -82 402 -111 472 -8 17 -14 40
-14 51 0 12 -4 23 -9 27 -5 3 -12 19 -16 36 -4 17 -13 42 -21 57 -8 15 -14 35
-14 44 0 9 -4 19 -9 23 -5 3 -13 19 -16 36 -4 17 -14 40 -23 50 -16 18 -36 19
-408 19 -215 0 -394 -3 -397 -7z"/>
<path d="M3745 6231 c4 -18 13 -44 21 -59 8 -15 14 -35 14 -44 0 -9 4 -19 9
-23 5 -3 12 -19 16 -36 4 -17 13 -42 21 -57 8 -15 14 -38 14 -52 0 -15 4 -30
9 -35 6 -6 15 -30 21 -55 51 -201 66 -271 86 -395 24 -162 34 -249 34 -317 l0
-68 666 0 666 0 -7 128 c-3 70 -11 141 -15 157 -5 17 -14 62 -19 100 -12 86
-31 173 -42 200 -5 11 -13 38 -18 60 -14 56 -35 125 -49 158 -7 16 -12 33 -12
38 0 5 -4 17 -10 27 -5 9 -17 35 -26 57 -9 22 -36 81 -60 131 l-43 91 -478 6
c-263 4 -552 10 -642 14 l-163 6 7 -32z"/>
<path d="M5185 6233 c3 -16 11 -29 16 -31 5 -2 9 -8 9 -14 0 -6 9 -29 19 -52
39 -83 51 -114 51 -130 0 -9 4 -16 10 -16 5 0 12 -16 16 -37 4 -20 13 -48 20
-62 8 -14 14 -36 14 -48 0 -12 4 -25 10 -28 5 -3 12 -28 16 -55 10 -75 30 -83
39 -15 3 30 10 57 14 60 5 2 11 27 15 54 4 28 10 53 15 55 5 3 12 26 15 51 4
24 11 47 16 50 4 3 11 23 15 45 4 22 11 42 16 46 5 3 9 13 9 22 0 9 6 29 14
44 8 15 17 40 21 57 l7 31 -192 0 -192 0 7 -27z"/>
<path d="M5713 6233 c-7 -16 -15 -40 -19 -55 -3 -16 -10 -28 -14 -28 -4 0 -11
-17 -15 -37 -4 -21 -10 -42 -14 -48 -4 -5 -17 -44 -30 -85 -12 -41 -27 -84
-31 -95 -5 -11 -12 -38 -15 -60 -4 -22 -10 -44 -13 -50 -8 -12 -29 -107 -43
-195 -6 -36 -13 -72 -16 -80 -11 -29 -27 -197 -24 -252 1 -21 -3 -38 -9 -38
-6 0 -10 -26 -10 -60 l0 -60 545 0 545 0 0 585 0 585 -413 0 -412 0 -12 -27z"/>
<path d="M6690 5677 l0 -587 541 0 541 0 -6 68 c-15 181 -52 437 -65 462 -5 9
-12 40 -16 70 -4 30 -11 60 -15 65 -4 6 -11 26 -15 45 -8 40 -34 128 -45 150
-4 9 -11 30 -15 49 -4 18 -13 44 -21 59 -8 15 -14 32 -14 38 0 7 -7 25 -15 40
-8 16 -15 37 -15 47 0 9 -4 17 -9 17 -5 0 -12 11 -15 25 -6 25 -8 25 -110 25
-56 0 -238 3 -404 7 l-302 6 0 -586z"/>
<path d="M7665 6233 c8 -15 15 -36 15 -45 0 -9 4 -19 9 -23 5 -3 12 -19 16
-36 4 -17 13 -42 21 -57 8 -15 14 -34 14 -43 0 -9 7 -30 15 -45 8 -16 15 -41
15 -56 0 -16 4 -28 9 -28 5 0 12 -21 16 -47 4 -27 10 -52 15 -58 4 -5 12 -35
18 -65 6 -30 15 -73 21 -95 6 -22 11 -56 11 -76 0 -19 4 -39 9 -45 11 -11 32
-187 38 -321 l4 -103 665 0 664 0 0 89 c0 50 -4 92 -9 95 -4 3 -12 51 -15 106
-4 55 -11 102 -16 105 -4 3 -11 33 -15 67 -4 35 -11 68 -15 73 -4 6 -11 28
-14 50 -9 46 -34 133 -45 155 -5 9 -12 30 -16 49 -4 18 -13 44 -21 59 -8 15
-14 35 -14 45 0 9 -4 17 -9 17 -5 0 -12 12 -16 27 -3 15 -27 69 -52 120 l-46
93 -526 4 c-289 3 -579 8 -643 11 l-117 6 14 -28z"/>
<path d="M4654 4943 l-661 -3 -6 -148 c-3 -81 -10 -169 -16 -197 -6 -27 -15
-79 -20 -115 -10 -62 -28 -151 -50 -253 -6 -26 -15 -55 -20 -65 -5 -9 -12 -36
-16 -59 -4 -24 -11 -45 -16 -49 -5 -3 -9 -14 -9 -26 0 -11 -6 -34 -14 -51 -8
-18 -24 -63 -37 -100 -12 -37 -26 -70 -30 -73 -5 -3 -9 -12 -9 -20 0 -8 -9
-36 -21 -61 -11 -25 -17 -48 -14 -51 4 -4 281 -9 616 -10 l609 -4 20 24 c11
12 19 28 20 35 0 6 6 18 13 25 15 17 87 161 87 176 0 7 5 12 10 12 6 0 10 6
10 13 0 14 44 124 54 134 3 3 6 13 6 21 0 8 6 28 13 45 18 43 44 124 52 167 4
19 10 40 14 45 8 14 30 116 42 200 5 39 14 84 19 100 8 29 26 297 19 293 -2
-2 -301 -4 -665 -5z"/>
<path d="M5460 4912 c0 -21 3 -42 8 -46 4 -4 7 -26 8 -49 2 -87 16 -231 24
-246 5 -9 14 -47 19 -86 17 -107 34 -189 41 -195 4 -3 10 -23 14 -45 8 -43 32
-127 46 -160 5 -11 12 -31 15 -45 6 -25 26 -79 51 -137 8 -17 14 -36 14 -42 0
-6 4 -19 9 -29 6 -9 20 -39 32 -67 12 -27 25 -57 29 -65 6 -13 49 -16 261 -21
140 -3 313 -5 384 -4 l130 0 0 635 0 635 -542 3 -543 2 0 -38z"/>
<path d="M6690 4310 l0 -639 389 2 390 2 21 45 c12 25 25 52 29 60 5 9 12 30
16 48 3 18 11 32 16 32 5 0 9 8 9 18 0 9 6 29 14 44 8 15 17 41 21 59 4 19 11
40 16 49 12 23 49 151 49 171 0 10 4 20 9 23 5 3 12 30 16 61 3 30 10 57 15
60 4 2 11 35 15 72 4 38 11 75 16 84 4 9 11 57 15 107 4 51 10 92 14 92 4 0 8
56 9 125 l2 125 -541 0 -540 0 0 -640z"/>
<path d="M7919 4943 c0 -5 -5 -62 -9 -128 -14 -192 -29 -328 -39 -350 -5 -11
-13 -47 -16 -80 -4 -33 -10 -64 -15 -70 -4 -5 -11 -32 -15 -60 -4 -27 -10 -54
-15 -60 -4 -5 -11 -31 -14 -57 -4 -26 -11 -50 -16 -53 -4 -3 -11 -23 -15 -45
-4 -22 -10 -42 -15 -45 -5 -3 -11 -23 -15 -45 -4 -22 -11 -42 -16 -46 -5 -3
-9 -13 -9 -22 0 -9 -6 -29 -14 -43 -7 -14 -16 -38 -20 -55 -4 -16 -11 -31 -16
-34 -4 -3 -11 -22 -15 -43 l-7 -37 619 0 618 0 25 48 c14 26 28 49 32 52 3 3
10 18 13 33 4 15 11 27 15 27 5 0 11 14 15 30 4 17 11 30 16 30 5 0 9 5 9 11
0 10 32 89 49 119 5 9 12 30 16 48 3 18 10 32 15 32 4 0 11 18 15 40 4 22 11
42 15 45 5 3 12 26 16 50 3 25 10 47 14 50 5 3 11 28 15 55 4 27 11 52 15 55
4 3 11 33 15 67 4 35 11 68 15 73 4 6 11 54 15 108 4 53 11 100 16 103 5 3 9
50 9 105 l0 99 -660 0 c-363 0 -660 -3 -661 -7z"/>
<path d="M81 4873 c2 -179 65 -537 115 -650 8 -17 14 -40 14 -51 0 -12 4 -23
9 -27 5 -3 13 -20 17 -37 3 -18 10 -39 15 -48 5 -8 18 -37 29 -65 11 -27 27
-62 35 -77 8 -14 15 -33 15 -42 0 -9 4 -16 9 -16 5 0 12 -13 16 -30 4 -16 10
-30 13 -30 4 0 18 -24 32 -52 13 -29 29 -56 35 -60 5 -4 292 -8 637 -8 l627 0
-11 33 c-6 17 -17 41 -25 52 -7 11 -13 27 -13 36 0 10 -6 30 -14 46 -26 51
-46 103 -46 117 0 8 -7 27 -15 42 -8 16 -15 39 -15 51 0 12 -4 24 -9 27 -5 4
-12 25 -16 49 -4 23 -11 47 -15 52 -5 6 -13 35 -20 65 -6 30 -18 87 -26 125
-9 39 -20 99 -25 135 -5 36 -15 85 -20 110 -6 25 -14 107 -16 183 l-6 137
-663 0 -664 0 1 -67z"/>
<path d="M1551 4883 c1 -99 36 -385 52 -423 3 -8 10 -40 16 -70 16 -83 35
-164 43 -175 3 -6 9 -28 13 -50 4 -22 11 -44 15 -50 4 -5 11 -26 15 -45 4 -19
11 -39 15 -45 4 -5 15 -35 24 -65 10 -30 24 -68 31 -85 39 -88 55 -129 55
-141 0 -8 4 -14 9 -14 5 0 11 -9 14 -20 5 -20 14 -20 386 -20 l381 0 0 630 0
630 -535 0 -535 0 1 -57z"/>
<path d="M2770 4312 l0 -629 242 -6 c133 -4 307 -7 388 -7 142 0 147 1 158 23
10 20 42 94 61 142 5 11 16 37 25 58 9 21 16 43 16 50 0 7 6 24 14 39 8 15 17
42 21 60 4 18 11 38 15 43 4 6 11 28 15 50 4 22 10 44 13 50 13 20 56 222 76
355 8 52 16 102 19 110 3 8 8 77 12 153 l6 137 -540 0 -541 0 0 -628z"/>
<path d="M5387 4350 c-23 -97 -28 -117 -36 -135 -5 -11 -19 -54 -31 -95 -13
-41 -26 -79 -30 -85 -4 -5 -11 -25 -15 -42 -3 -18 -11 -33 -16 -33 -5 0 -9 -7
-9 -16 0 -9 -6 -28 -14 -42 -8 -15 -31 -63 -52 -107 -20 -44 -41 -81 -45 -83
-5 -2 -9 -10 -9 -18 0 -12 40 -14 245 -14 271 0 251 -6 220 65 -24 55 -42 99
-60 150 -10 28 -24 64 -31 82 -8 17 -14 40 -14 52 0 12 -4 21 -8 21 -4 0 -13
21 -19 48 -6 26 -19 74 -28 107 -9 33 -23 85 -29 115 -11 46 -14 51 -19 30z"/>
<path d="M536 3528 c10 -16 126 -171 133 -178 3 -3 31 -34 61 -70 75 -88 191
-201 275 -269 39 -31 72 -58 75 -61 22 -22 100 -80 108 -80 6 0 12 -3 14 -7 5
-11 66 -53 77 -53 5 0 11 -4 13 -8 4 -11 123 -82 136 -82 6 0 12 -3 14 -7 4
-10 151 -83 166 -83 7 0 12 -3 12 -8 0 -4 24 -16 53 -26 28 -10 66 -24 82 -32
39 -17 197 -70 255 -84 138 -34 173 -42 260 -56 52 -9 132 -19 176 -22 88 -8
95 -2 49 43 -11 11 -45 52 -75 90 -30 39 -61 76 -68 84 -7 8 -21 26 -30 40 -9
14 -22 30 -29 34 -7 4 -13 15 -13 22 0 8 -3 15 -7 15 -5 0 -19 17 -33 38 -14
20 -29 42 -35 48 -5 6 -17 22 -25 34 -8 12 -23 33 -32 45 -10 13 -18 28 -18
33 0 6 -3 12 -7 14 -11 5 -53 66 -53 77 0 5 -3 11 -7 13 -12 5 -53 66 -53 78
0 5 -4 10 -10 10 -5 0 -12 11 -16 25 -3 14 -9 25 -13 25 -3 0 -17 21 -31 48
-13 26 -27 49 -30 52 -3 3 -16 28 -30 55 -14 28 -28 52 -31 55 -3 3 -23 40
-44 83 l-39 77 -618 0 c-493 0 -618 -3 -612 -12z"/>
<path d="M1943 3512 c21 -48 58 -115 108 -198 27 -45 49 -85 49 -88 0 -4 5
-12 10 -19 6 -7 48 -68 93 -137 45 -69 86 -130 92 -136 5 -6 17 -22 25 -34 41
-62 145 -196 157 -203 7 -4 13 -14 13 -22 0 -7 3 -15 8 -17 4 -1 25 -25 47
-53 83 -103 75 -149 75 425 l0 510 -345 0 -344 0 12 -28z"/>
<path d="M5043 3523 c-18 -9 -33 -20 -33 -25 0 -11 -42 -72 -52 -76 -5 -2 -8
-10 -8 -17 0 -8 -6 -18 -13 -22 -7 -4 -20 -20 -29 -34 -9 -14 -23 -32 -30 -40
-7 -8 -31 -37 -53 -64 -22 -28 -43 -51 -47 -53 -32 -14 53 -107 202 -224 30
-23 57 -45 60 -49 10 -13 249 -169 259 -169 5 0 11 -4 13 -8 3 -7 234 -123
308 -155 98 -41 298 -107 326 -107 11 0 24 -4 30 -9 5 -5 36 -14 69 -20 153
-26 184 -32 236 -41 30 -5 81 -10 113 -10 l58 0 -33 38 c-44 49 -62 72 -129
157 -30 39 -57 72 -60 75 -3 3 -18 23 -33 46 -15 22 -35 49 -45 60 -24 27 -62
82 -62 89 0 5 -6 13 -35 48 -6 7 -22 30 -35 52 -13 22 -30 46 -37 53 -7 7 -13
19 -13 27 0 7 -3 15 -7 17 -12 5 -53 66 -53 78 0 5 -4 10 -10 10 -5 0 -10 6
-10 13 0 7 -15 35 -32 62 -18 28 -42 68 -53 90 -11 22 -22 42 -25 45 -3 3 -25
44 -49 93 l-44 87 -306 -1 c-261 0 -311 -3 -338 -16z"/>
<path d="M5850 3537 c0 -2 16 -33 36 -68 19 -35 40 -76 47 -91 6 -16 15 -28
19 -28 4 0 8 -6 8 -13 0 -7 16 -36 35 -66 19 -29 35 -57 35 -62 0 -5 4 -9 9
-9 5 0 13 -10 17 -22 3 -12 11 -26 16 -32 5 -6 31 -45 58 -86 61 -93 72 -109
85 -124 19 -22 55 -75 55 -81 0 -3 13 -20 30 -38 16 -18 30 -35 30 -39 0 -5 8
-16 18 -27 19 -20 59 -70 70 -88 6 -9 27 -35 110 -132 l22 -26 -2 515 -3 515
-347 3 c-192 1 -348 1 -348 -1z"/>
<path d="M7570 3530 c-8 -5 -72 -121 -99 -177 -8 -18 -19 -33 -23 -33 -4 0 -8
-5 -8 -11 0 -12 -99 -180 -110 -189 -4 -3 -10 -15 -14 -27 -4 -13 -12 -23 -17
-23 -5 0 -9 -4 -9 -9 0 -11 -44 -79 -94 -147 -17 -23 -38 -52 -46 -64 -8 -12
-23 -31 -32 -42 -10 -12 -18 -24 -18 -27 0 -3 -14 -22 -30 -41 -41 -48 -42
-50 -70 -90 -14 -19 -34 -44 -45 -55 -11 -11 -38 -43 -60 -70 -22 -28 -52 -63
-67 -80 -15 -16 -28 -34 -28 -39 0 -20 412 37 462 64 10 6 24 10 31 10 14 0
138 36 172 50 11 4 43 16 70 25 88 31 221 93 340 158 162 90 195 110 195 120
0 4 5 7 10 7 10 0 66 36 80 50 3 3 36 30 75 60 110 86 112 88 234 211 125 124
162 167 247 281 l55 73 -178 3 c-98 1 -366 6 -596 10 -231 4 -422 5 -427 2z"/>
<path d="M2770 3025 c0 -278 2 -505 5 -505 8 0 39 34 105 115 30 38 70 84 87
104 18 20 33 39 33 42 0 3 11 19 25 35 14 16 38 47 53 69 15 22 32 45 37 51
13 15 21 27 115 169 44 66 83 125 87 130 5 6 14 21 20 35 7 14 26 48 42 75 17
28 36 61 41 75 6 13 14 27 18 30 4 3 14 19 22 35 8 17 16 33 18 38 2 4 -156 7
-352 7 l-356 0 0 -505z"/>
<path d="M3592 3442 c-43 -89 -78 -154 -113 -207 -10 -16 -24 -42 -30 -57 -6
-16 -15 -28 -20 -28 -5 0 -9 -5 -9 -10 0 -12 -41 -73 -52 -78 -5 -2 -8 -8 -8
-13 0 -11 -42 -72 -52 -77 -5 -2 -8 -8 -8 -13 0 -11 -42 -72 -52 -77 -5 -2 -8
-10 -8 -17 0 -8 -6 -18 -13 -22 -7 -4 -23 -25 -37 -45 -14 -21 -28 -38 -32
-38 -5 0 -8 -7 -8 -15 0 -7 -6 -18 -13 -22 -8 -4 -18 -15 -23 -24 -10 -18 -69
-92 -94 -119 -8 -9 -33 -38 -55 -65 -22 -28 -48 -59 -58 -70 -44 -48 -41 -51
46 -43 147 12 412 63 502 97 11 4 52 18 90 30 39 13 86 30 105 38 19 8 44 18
55 22 11 5 41 18 66 30 25 11 51 21 58 21 6 0 11 4 11 9 0 5 12 12 27 16 15 3
30 10 33 13 3 4 23 16 45 27 22 11 62 34 90 52 27 18 55 33 62 33 6 0 13 3 15
8 5 10 66 52 77 52 5 0 11 4 13 8 2 5 28 26 58 48 30 21 60 43 66 49 7 5 36
30 65 55 88 73 227 210 287 284 31 38 72 85 89 105 18 20 33 39 33 42 0 5 11
20 49 65 5 7 7 15 4 18 -4 3 -279 6 -612 6 l-606 -1 -43 -87z"/>
<path d="M6690 3018 l1 -513 20 25 c12 14 38 45 58 69 20 24 47 56 60 70 13
14 31 37 40 51 18 28 47 64 74 92 9 10 17 20 17 23 0 2 21 33 48 68 26 36 54
75 62 87 8 12 22 30 31 40 8 10 24 35 34 54 11 20 23 36 27 36 5 0 8 6 8 14 0
8 6 21 13 28 19 19 147 234 147 246 0 6 3 12 8 14 7 3 52 90 52 102 0 3 -157
6 -350 6 l-350 0 0 -512z"/>
<path d="M475 1411 c-132 -8 -165 -17 -222 -59 -44 -33 -68 -83 -83 -180 -11
-68 -11 -96 -1 -160 24 -143 70 -190 210 -211 58 -9 483 -30 639 -31 85 0 113
-124 35 -159 -34 -16 -513 -15 -548 1 -29 13 -55 55 -55 88 0 19 -5 20 -151
20 l-152 0 6 -82 c7 -102 21 -144 61 -183 73 -72 186 -90 576 -90 506 0 570
26 601 249 17 119 0 238 -42 296 -58 80 -134 97 -459 105 -295 7 -395 19 -415
48 -18 26 -19 48 -4 80 10 21 22 26 86 36 94 14 361 13 433 -2 54 -12 55 -13
64 -54 l9 -43 150 0 150 0 -6 85 c-10 138 -45 186 -167 225 -56 18 -97 21
-324 24 -144 3 -319 1 -391 -3z"/>
<path d="M3330 1410 c-139 -6 -270 -31 -270 -52 0 -4 -6 -8 -14 -8 -25 0 -75
-75 -91 -136 -12 -45 -15 -118 -15 -329 0 -234 3 -278 19 -329 49 -158 159
-191 646 -191 442 0 550 27 606 154 15 34 19 66 19 152 l0 109 -149 0 -149 0
-6 -37 c-21 -118 -22 -118 -330 -118 -242 0 -252 1 -287 22 -53 33 -64 79 -63
248 2 231 22 258 204 270 131 9 360 -2 410 -20 32 -11 35 -16 40 -56 l5 -44
155 0 155 0 3 35 c6 54 -18 181 -39 216 -22 35 -80 84 -101 84 -8 0 -19 5 -25
11 -24 24 -391 34 -723 19z"/>
<path d="M4700 1410 c-174 -8 -227 -22 -282 -73 -68 -63 -91 -175 -92 -437 -1
-402 47 -491 280 -521 132 -17 694 -18 829 -1 242 31 285 110 285 522 0 186
-16 325 -42 376 -26 49 -76 91 -132 110 -84 29 -483 40 -846 24z m646 -277
c12 -7 30 -25 40 -40 17 -25 19 -48 19 -203 0 -159 -2 -177 -20 -202 -36 -47
-101 -58 -361 -58 -245 0 -314 10 -354 50 -29 29 -42 155 -29 286 13 143 25
163 108 175 81 12 573 5 597 -8z"/>
<path d="M10835 1410 c-154 -6 -202 -16 -262 -55 -44 -29 -67 -61 -89 -125
-17 -49 -19 -86 -19 -340 0 -276 1 -287 24 -347 13 -35 27 -63 32 -63 5 0 9
-5 9 -11 0 -36 98 -76 220 -91 142 -17 671 -17 810 0 126 16 177 38 223 94 54
68 67 152 67 424 0 232 -14 348 -46 385 -8 8 -14 19 -14 22 0 11 -39 47 -50
47 -5 0 -10 4 -10 9 0 48 -407 71 -895 51z m596 -269 c89 -15 112 -67 113
-261 1 -150 -14 -192 -79 -225 -37 -18 -60 -20 -305 -20 -394 0 -390 -3 -390
250 0 207 15 243 109 256 65 9 497 9 552 0z"/>
<path d="M1500 1040 c0 -295 3 -374 16 -433 46 -203 148 -242 649 -242 358 0
485 21 560 93 81 76 87 114 92 565 l5 378 -154 -3 -153 -3 -6 -325 c-4 -179
-10 -337 -14 -352 -18 -68 -92 -88 -320 -88 -172 0 -254 9 -303 33 -54 25 -57
44 -62 402 l-5 330 -152 3 -153 3 0 -361z"/>
<path d="M5850 890 l0 -510 150 0 150 0 0 174 c0 149 2 175 16 180 9 3 173 6
365 6 l350 0 -3 113 -3 112 -360 5 -360 5 -3 89 c-2 65 1 92 10 98 7 4 181 8
386 8 l373 0 -3 113 -3 112 -532 3 -533 2 0 -510z"/>
<path d="M6990 890 l0 -510 163 2 162 3 3 508 2 507 -165 0 -165 0 0 -510z"/>
<path d="M7460 890 l0 -510 155 0 155 0 0 380 c0 432 -2 424 75 318 24 -35 64
-90 87 -122 24 -33 45 -64 47 -70 2 -5 8 -15 13 -21 10 -11 86 -119 138 -195
19 -28 41 -58 48 -65 6 -7 12 -16 12 -20 0 -3 5 -11 10 -18 6 -7 33 -43 60
-82 82 -117 44 -106 343 -103 l262 3 3 508 2 508 -156 -3 -157 -3 2 -377 c2
-319 0 -378 -12 -378 -8 0 -36 32 -63 70 -27 39 -70 99 -96 135 -27 35 -48 67
-48 70 0 4 -6 13 -12 20 -7 7 -29 37 -48 65 -37 54 -124 178 -137 196 -4 5
-12 17 -18 26 -5 9 -35 53 -65 97 l-55 80 -272 1 -273 0 0 -510z"/>
<path d="M9015 1388 c-3 -7 -4 -236 -3 -508 l3 -495 520 0 c481 0 525 1 590
19 103 28 135 51 172 121 45 84 53 139 53 375 0 196 -2 230 -21 290 -34 112
-98 170 -222 199 -71 17 -1086 15 -1092 -1z m876 -247 c135 -12 159 -50 159
-255 0 -124 -14 -183 -52 -213 -26 -22 -198 -34 -438 -31 l-235 3 -3 240 c-1
132 0 245 2 252 4 10 60 13 243 12 131 0 277 -4 324 -8z"/>
</g>
</svg>
